<mxfile host="app.diagrams.net" modified="2023-06-21T22:09:40.334Z" agent="Mozilla/5.0 (Windows NT 10.0; Win64; x64) AppleWebKit/537.36 (KHTML, like Gecko) Chrome/114.0.0.0 Safari/537.36" version="21.5.0" etag="ddN3_MA_nRsPmZY4Cp9W" type="github">
  <diagram name="Seite-1" id="pjUcU-uPgd0PdJV89XcJ">
    <mxGraphModel>
      <root>
        <mxCell id="0" />
        <mxCell id="1" parent="0" />
      </root>
    </mxGraphModel>
  </diagram>
</mxfile>
